<svg width="512" height="512" viewBox="0 0 512 512" fill="none" xmlns="http://www.w3.org/2000/svg">
<path d="M38.3046 143.698H74.1655C76.1611 143.698 78.075 142.905 79.4861 141.494C80.8972 140.083 81.6899 138.169 81.6899 136.174C81.6899 134.178 80.8972 132.264 79.4861 130.853C78.075 129.442 76.1611 128.649 74.1655 128.649H51.4217C54.4093 123.856 57.5646 119.168 60.882 114.597H178.754C180.75 114.597 182.664 113.804 184.075 112.393C185.486 110.982 186.278 109.068 186.278 107.072C186.278 105.077 185.486 103.163 184.075 101.752C182.664 100.341 180.75 99.548 178.754 99.548H57.0863C55.9182 99.5481 54.7661 99.8201 53.7214 100.343C52.6766 100.865 51.7678 101.624 51.067 102.558C43.8906 112.13 37.3777 122.222 31.7097 132.555C31.0812 133.701 30.7618 134.991 30.783 136.297C30.8041 137.604 31.165 138.882 31.8302 140.007C32.496 141.131 33.4432 142.063 34.5784 142.71C35.7137 143.357 36.9979 143.698 38.3046 143.698ZM14.6882 204.138H123.415C125.41 204.138 127.324 203.346 128.735 201.934C130.146 200.523 130.939 198.609 130.939 196.614C130.939 194.618 130.146 192.704 128.735 191.293C127.324 189.882 125.41 189.089 123.415 189.089H24.4706C25.835 184.359 27.3489 179.672 29.01 175.037H74.1672C76.1628 175.037 78.0767 174.244 79.4878 172.833C80.8989 171.422 81.6916 169.508 81.6916 167.513C81.6916 165.517 80.8989 163.603 79.4878 162.192C78.0767 160.781 76.1628 159.988 74.1672 159.988H23.7779C22.2563 159.988 20.7705 160.45 19.5165 161.312C18.2625 162.173 17.2992 163.395 16.7538 164.815C12.9907 174.612 9.85901 184.64 7.37799 194.837C7.10853 195.944 7.09412 197.097 7.33587 198.211C7.57761 199.324 8.06918 200.367 8.77344 201.263C9.47708 202.159 10.3751 202.883 11.3998 203.381C12.4244 203.88 13.5489 204.138 14.6882 204.138ZM143.004 344.355C143.004 342.36 142.212 340.446 140.801 339.035C139.39 337.624 137.476 336.831 135.48 336.831H28.9514C27.2993 332.196 25.7949 327.509 24.4405 322.778H229.497C231.493 322.778 233.407 321.986 234.818 320.575C236.229 319.163 237.022 317.25 237.022 315.254C237.022 313.258 236.229 311.345 234.818 309.933C233.407 308.522 231.493 307.73 229.497 307.73H14.6656C13.5265 307.729 12.4021 307.988 11.3774 308.485C10.3527 308.983 9.45441 309.707 8.75027 310.602C8.04614 311.498 7.55457 312.542 7.31265 313.655C7.07073 314.768 7.08477 315.921 7.35373 317.028C9.82443 327.22 12.9395 337.245 16.6802 347.042C17.2244 348.465 18.1876 349.689 19.4426 350.553C20.6975 351.416 22.1851 351.879 23.7084 351.879H135.478C136.467 351.879 137.445 351.685 138.358 351.307C139.271 350.929 140.101 350.375 140.8 349.676C141.499 348.977 142.053 348.148 142.432 347.235C142.81 346.322 143.004 345.343 143.004 344.355ZM232.543 404.795C232.543 402.8 231.75 400.886 230.339 399.475C228.928 398.064 227.014 397.271 225.018 397.271H60.7808C57.4694 392.698 54.3191 388.011 51.3355 383.219H74.1689C76.1645 383.219 78.0783 382.426 79.4894 381.015C80.9005 379.604 81.6933 377.69 81.6933 375.694C81.6933 373.699 80.9005 371.785 79.4894 370.374C78.0783 368.963 76.1645 368.17 74.1689 368.17H38.2143C36.9074 368.17 35.623 368.51 34.4877 369.157C33.3523 369.804 32.4051 370.736 31.7394 371.861C31.0737 372.985 30.7125 374.264 30.6913 375.571C30.6701 376.877 30.9896 378.167 31.6185 379.313C37.2622 389.604 43.7651 399.693 50.9457 409.301C51.6464 410.238 52.556 410.998 53.6022 411.523C54.6484 412.047 55.8024 412.32 56.9726 412.32H225.017C227.013 412.32 228.927 411.527 230.338 410.116C231.749 408.705 232.542 406.791 232.543 404.795Z" fill="#FFC500"/>
<path d="M256.001 0.00100708C190.154 0.00100708 127.587 24.9585 79.8218 70.2738C78.7304 71.31 77.9747 72.6496 77.6523 74.1196C77.33 75.5896 77.4557 77.1225 78.0133 78.5203C78.5709 79.9182 79.5347 81.1167 80.7804 81.9612C82.026 82.8057 83.4963 83.2574 85.0012 83.2579H152.517C154.512 83.2579 156.426 82.4652 157.837 81.0541C159.248 79.643 160.041 77.7291 160.041 75.7335C160.041 73.7379 159.248 71.8241 157.837 70.413C156.426 69.0019 154.512 68.2091 152.517 68.2091H105.021C147.73 33.8005 200.635 15.0506 256.002 15.0506C386.344 15.0506 492.833 119.087 496.822 248.479H15.181C15.3112 244.139 15.5589 239.803 15.9239 235.477H235.466C237.461 235.477 239.375 234.684 240.786 233.273C242.197 231.862 242.99 229.948 242.99 227.952C242.99 225.957 242.197 224.043 240.786 222.632C239.375 221.221 237.461 220.428 235.466 220.428H9.11393C7.26625 220.429 5.48331 221.109 4.10449 222.339C2.72567 223.568 1.84723 225.262 1.63639 227.098C0.546357 236.694 2.0209e-05 246.343 0 256C0 265.549 0.543791 275.222 1.6138 284.756C1.82035 286.594 2.6971 288.292 4.0765 289.525C5.4559 290.758 7.24124 291.44 9.09135 291.439H172.659C174.655 291.439 176.569 290.647 177.98 289.236C179.391 287.824 180.184 285.911 180.184 283.915C180.184 281.919 179.391 280.006 177.98 278.595C176.569 277.183 174.655 276.391 172.659 276.391H15.913C15.5563 272.11 15.3122 267.822 15.181 263.529H496.821C496.687 267.846 496.437 272.133 496.078 276.391H403.353C401.358 276.391 399.444 277.183 398.033 278.595C396.621 280.006 395.829 281.919 395.829 283.915C395.829 285.911 396.621 287.824 398.033 289.236C399.444 290.647 401.358 291.439 403.353 291.439H494.336C493.526 296.902 492.527 302.335 491.339 307.729H449.241C447.245 307.729 445.331 308.522 443.92 309.933C442.509 311.344 441.716 313.258 441.716 315.253C441.716 317.249 442.509 319.163 443.92 320.574C445.331 321.985 447.245 322.778 449.241 322.778H487.526C482.981 338.495 476.837 353.704 469.19 368.168H348.507C346.512 368.168 344.598 368.961 343.187 370.372C341.776 371.783 340.983 373.697 340.983 375.693C340.983 377.688 341.776 379.602 343.187 381.013C344.598 382.424 346.512 383.217 348.507 383.217H460.533C417.94 451.45 342.188 496.95 255.998 496.95C200.531 496.95 147.566 478.157 104.85 443.657H145.979C147.975 443.657 149.889 442.864 151.3 441.453C152.711 440.042 153.504 438.128 153.504 436.132C153.504 434.137 152.711 432.223 151.3 430.812C149.889 429.401 147.975 428.608 145.979 428.608H84.8657C83.3613 428.608 81.8915 429.059 80.646 429.903C79.4005 430.746 78.4364 431.944 77.8783 433.341C77.3201 434.738 77.1935 436.27 77.5147 437.74C77.836 439.21 78.5903 440.549 79.6804 441.586C127.439 486.993 190.057 512 256.001 512C397.158 511.999 512 397.157 512 256C512 114.843 397.158 0.00100708 256.001 0.00100708Z" fill="#FFC500"/>
<path d="M396.505 234.256C401.88 234.262 407.218 233.375 412.301 231.63C443.466 220.915 457.779 180.077 444.204 140.594C433.113 108.334 406.24 85.801 378.86 85.801C373.486 85.7941 368.149 86.681 363.066 88.4254C331.901 99.1406 317.588 139.979 331.163 179.461C342.256 211.723 369.127 234.256 396.505 234.256ZM367.961 102.659C371.469 101.456 375.153 100.845 378.862 100.852C399.921 100.852 420.938 119.206 429.978 145.488C440.853 177.122 430.728 209.382 407.411 217.4C403.902 218.604 400.218 219.215 396.508 219.208C375.452 219.208 354.434 200.851 345.395 174.569C334.518 142.934 344.641 110.674 367.961 102.659ZM399.997 155.795C403.054 164.684 400.009 173.788 393.198 176.13C386.388 178.471 378.389 173.163 375.334 164.274C372.278 155.385 375.322 146.281 382.133 143.94C388.943 141.599 396.941 146.906 399.997 155.795Z" fill="#FFC500"/>
</svg>
